<svg width="998" height="479" viewBox="0 0 998 479" fill="none" xmlns="http://www.w3.org/2000/svg">
<path d="M336.293 114.428C355.673 114.428 369.698 119.403 378.369 129.353C382.704 134.201 385.764 140.451 387.549 148.105C389.334 155.759 390.226 166.092 390.226 179.104V282.051C390.226 292.511 392.011 299.783 395.581 303.865C399.407 307.692 405.782 309.605 414.707 309.605V317.642C389.206 316.622 372.376 316.111 364.216 316.111C356.566 316.111 339.99 316.622 314.49 317.642V309.605C322.14 309.605 327.495 307.692 330.555 303.865C333.615 299.783 335.145 292.511 335.145 282.051V163.031C335.145 152.57 333.36 144.661 329.79 139.303C326.475 133.945 320.355 131.267 311.43 131.267C300.975 131.267 292.049 135.604 284.654 144.278C277.259 152.698 273.562 163.158 273.562 175.66V282.051C273.562 292.511 275.092 299.783 278.152 303.865C281.212 307.692 286.567 309.605 294.217 309.605V317.642C270.757 316.622 254.946 316.111 246.786 316.111C239.136 316.111 221.541 316.622 194 317.642V309.605C203.18 309.605 209.555 307.692 213.125 303.865C216.695 299.783 218.48 292.511 218.48 282.051V161.5C218.48 149.764 216.695 141.217 213.125 135.859C209.555 130.501 203.18 127.822 194 127.822V119.786C202.16 120.551 210.065 120.934 217.715 120.934C240.411 120.934 259.026 119.148 273.562 115.576V150.019C285.037 126.291 305.947 114.428 336.293 114.428Z" fill="#242320"/>
<path d="M530.833 114.428C560.158 114.428 583.109 122.847 599.684 139.686C616.259 156.27 624.547 182.676 624.547 218.905C624.547 255.134 616.259 281.541 599.684 298.124C583.109 314.708 560.158 323 530.833 323C501.762 323 478.812 314.708 461.981 298.124C445.406 281.541 437.118 255.134 437.118 218.905C437.118 182.676 445.406 156.27 461.981 139.686C478.812 122.847 501.762 114.428 530.833 114.428ZM530.833 122.082C519.868 122.082 511.07 130.118 504.44 146.192C498.065 162.01 494.877 186.248 494.877 218.905C494.877 251.562 498.065 275.8 504.44 291.618C511.07 307.437 519.868 315.346 530.833 315.346C542.053 315.346 550.851 307.564 557.226 292.001C563.601 276.183 566.788 251.818 566.788 218.905C566.788 185.993 563.473 161.628 556.843 145.809C550.468 129.991 541.798 122.082 530.833 122.082ZM573.291 4.97512C577.881 8.29187 580.176 13.1394 580.176 19.5178C580.176 24.8756 578.264 30.1059 574.439 35.2085C571.634 38.5253 568.064 41.9696 563.728 45.5415C559.648 48.8582 555.186 52.3025 550.341 55.8744C535.04 66.5901 521.525 77.4333 509.795 88.404L505.587 84.9597C512.472 72.4581 519.613 56.7674 527.008 37.8875C530.323 29.9783 532.873 24.1102 534.658 20.2832C536.698 16.201 539.12 12.5016 541.925 9.18483C546.771 3.06161 552.763 0 559.903 0C565.258 0 569.721 1.65837 573.291 4.97512Z" fill="#242320"/>
<path d="M727.351 114.428C737.041 114.428 745.966 115.703 754.127 118.255C762.287 120.551 768.534 123.23 772.869 126.291C775.419 128.077 777.714 128.97 779.755 128.97C782.05 128.97 783.962 127.822 785.492 125.526C787.277 122.975 788.425 119.403 788.935 114.81H796.967C795.947 127.822 795.437 150.274 795.437 182.166H787.405C785.11 165.327 780.01 151.295 772.104 140.069C764.454 128.588 753.234 122.847 738.444 122.847C730.794 122.847 724.418 125.016 719.318 129.353C714.473 133.69 712.051 139.686 712.051 147.34C712.051 156.015 714.983 163.541 720.848 169.919C726.714 176.043 735.894 183.569 748.389 192.499L759.482 200.536C775.037 212.272 786.512 222.732 793.907 231.917C801.302 241.102 805 252.583 805 266.36C805 277.586 801.685 287.536 795.055 296.211C788.68 304.885 780.01 311.519 769.044 316.111C758.079 320.704 745.966 323 732.706 323C718.681 323 706.696 320.321 696.75 314.963C688.59 310.881 682.725 308.202 679.155 306.927C676.605 306.161 674.31 307.054 672.27 309.605C670.485 311.902 669.082 315.474 668.062 320.321H660.03C661.05 305.778 661.56 280.265 661.56 243.781H669.592C674.692 290.726 691.905 314.198 721.231 314.198C728.626 314.198 734.874 312.029 739.974 307.692C745.329 303.1 748.006 296.211 748.006 287.026C748.006 279.882 746.349 273.504 743.034 267.891C739.974 262.278 736.021 257.303 731.176 252.966C726.331 248.628 719.063 242.633 709.373 234.979C697.898 225.794 689.1 218.395 682.98 212.782C677.115 207.169 672.015 200.536 667.68 192.882C663.6 185.227 661.56 176.68 661.56 167.241C661.56 150.912 667.935 138.028 680.685 128.588C693.435 119.148 708.991 114.428 727.351 114.428Z" fill="#242320"/>
<path d="M38.0849 423.467C43.2721 423.467 47.026 424.791 49.3466 427.441C50.5068 428.731 51.3259 430.396 51.8036 432.434C52.2814 434.472 52.5203 437.223 52.5203 440.687V468.097C52.5203 470.882 52.9981 472.818 53.9536 473.905C54.9774 474.924 56.6837 475.434 59.0725 475.434V477.573C52.2473 477.302 47.7426 477.166 45.5585 477.166C43.511 477.166 39.0746 477.302 32.2493 477.573V475.434C34.2969 475.434 35.7302 474.924 36.5492 473.905C37.3682 472.818 37.7778 470.882 37.7778 468.097V436.408C37.7778 433.622 37.3 431.517 36.3445 430.09C35.4572 428.664 33.8191 427.95 31.4303 427.95C28.6319 427.95 26.2431 429.105 24.2638 431.415C22.2844 433.656 21.2948 436.442 21.2948 439.77V468.097C21.2948 470.882 21.7043 472.818 22.5233 473.905C23.3424 474.924 24.7757 475.434 26.8232 475.434V477.573C20.544 477.302 16.3123 477.166 14.1283 477.166C12.0807 477.166 7.37127 477.302 0 477.573V475.434C2.45709 475.434 4.1634 474.924 5.11894 473.905C6.07447 472.818 6.55224 470.882 6.55224 468.097V436C6.55224 432.875 6.07447 430.6 5.11894 429.173C4.1634 427.746 2.45709 427.033 0 427.033V424.893C2.18408 425.097 4.29991 425.199 6.34748 425.199C12.422 425.199 17.4044 424.724 21.2948 423.773V432.943C24.3661 426.626 29.9628 423.467 38.0849 423.467Z" fill="#242320"/>
<path d="M89.9405 423.467C97.7896 423.467 103.932 425.709 108.369 430.192C112.805 434.607 115.023 441.638 115.023 451.284C115.023 460.93 112.805 467.961 108.369 472.377C103.932 476.792 97.7896 479 89.9405 479C82.1597 479 76.017 476.792 71.5124 472.377C67.0759 467.961 64.8577 460.93 64.8577 451.284C64.8577 441.638 67.0759 434.607 71.5124 430.192C76.017 425.709 82.1597 423.467 89.9405 423.467ZM89.9405 425.505C87.0057 425.505 84.651 427.645 82.8764 431.924C81.1701 436.136 80.3169 442.589 80.3169 451.284C80.3169 459.979 81.1701 466.433 82.8764 470.645C84.651 474.856 87.0057 476.962 89.9405 476.962C92.9436 476.962 95.2983 474.89 97.0047 470.746C98.711 466.535 99.5641 460.047 99.5641 451.284C99.5641 442.521 98.6768 436.034 96.9023 431.822C95.196 427.611 92.8754 425.505 89.9405 425.505Z" fill="#242320"/>
<path d="M142.326 423.467C144.919 423.467 147.308 423.806 149.492 424.486C151.676 425.097 153.348 425.81 154.509 426.626C155.191 427.101 155.806 427.339 156.352 427.339C156.966 427.339 157.478 427.033 157.887 426.422C158.365 425.742 158.672 424.791 158.809 423.569H160.959C160.686 427.033 160.549 433.011 160.549 441.502H158.399C157.785 437.019 156.42 433.283 154.304 430.294C152.256 427.237 149.253 425.709 145.295 425.709C143.247 425.709 141.541 426.286 140.176 427.441C138.879 428.596 138.23 430.192 138.23 432.23C138.23 434.539 139.015 436.543 140.585 438.242C142.155 439.872 144.612 441.876 147.956 444.254L150.925 446.393C155.089 449.518 158.16 452.303 160.14 454.749C162.119 457.194 163.109 460.251 163.109 463.919C163.109 466.908 162.221 469.558 160.447 471.867C158.74 474.177 156.42 475.943 153.485 477.166C150.55 478.389 147.308 479 143.759 479C140.005 479 136.797 478.287 134.135 476.86C131.951 475.773 130.381 475.06 129.426 474.72C128.743 474.517 128.129 474.754 127.583 475.434C127.105 476.045 126.73 476.996 126.457 478.287H124.307C124.58 474.415 124.717 467.622 124.717 457.908H126.866C128.232 470.407 132.839 476.656 140.688 476.656C142.667 476.656 144.339 476.079 145.704 474.924C147.137 473.701 147.854 471.867 147.854 469.422C147.854 467.52 147.41 465.821 146.523 464.327C145.704 462.833 144.646 461.508 143.349 460.353C142.053 459.198 140.107 457.602 137.514 455.564C134.442 453.118 132.088 451.148 130.45 449.654C128.88 448.16 127.515 446.393 126.355 444.355C125.263 442.318 124.717 440.042 124.717 437.528C124.717 433.181 126.423 429.75 129.835 427.237C133.248 424.724 137.411 423.467 142.326 423.467Z" fill="#242320"/>
<path d="M190.256 423.467C192.849 423.467 195.238 423.806 197.422 424.486C199.606 425.097 201.278 425.81 202.439 426.626C203.121 427.101 203.736 427.339 204.282 427.339C204.896 427.339 205.408 427.033 205.817 426.422C206.295 425.742 206.602 424.791 206.739 423.569H208.889C208.616 427.033 208.479 433.011 208.479 441.502H206.329C205.715 437.019 204.35 433.283 202.234 430.294C200.186 427.237 197.183 425.709 193.225 425.709C191.177 425.709 189.471 426.286 188.106 427.441C186.809 428.596 186.161 430.192 186.161 432.23C186.161 434.539 186.945 436.543 188.515 438.242C190.085 439.872 192.542 441.876 195.887 444.254L198.855 446.393C203.019 449.518 206.09 452.303 208.07 454.749C210.049 457.194 211.039 460.251 211.039 463.919C211.039 466.908 210.151 469.558 208.377 471.867C206.67 474.177 204.35 475.943 201.415 477.166C198.48 478.389 195.238 479 191.689 479C187.935 479 184.727 478.287 182.065 476.86C179.881 475.773 178.312 475.06 177.356 474.72C176.673 474.517 176.059 474.754 175.513 475.434C175.035 476.045 174.66 476.996 174.387 478.287H172.237C172.51 474.415 172.647 467.622 172.647 457.908H174.796C176.162 470.407 180.769 476.656 188.618 476.656C190.597 476.656 192.269 476.079 193.634 474.924C195.067 473.701 195.784 471.867 195.784 469.422C195.784 467.52 195.34 465.821 194.453 464.327C193.634 462.833 192.576 461.508 191.279 460.353C189.983 459.198 188.037 457.602 185.444 455.564C182.373 453.118 180.018 451.148 178.38 449.654C176.81 448.16 175.445 446.393 174.285 444.355C173.193 442.318 172.647 440.042 172.647 437.528C172.647 433.181 174.353 429.75 177.765 427.237C181.178 424.724 185.342 423.467 190.256 423.467Z" fill="#242320"/>
<path d="M244.328 423.467C252.177 423.467 258.32 425.709 262.757 430.192C267.193 434.607 269.411 441.638 269.411 451.284C269.411 460.93 267.193 467.961 262.757 472.377C258.32 476.792 252.177 479 244.328 479C236.548 479 230.405 476.792 225.9 472.377C221.464 467.961 219.246 460.93 219.246 451.284C219.246 441.638 221.464 434.607 225.9 430.192C230.405 425.709 236.548 423.467 244.328 423.467ZM244.328 425.505C241.394 425.505 239.039 427.645 237.264 431.924C235.558 436.136 234.705 442.589 234.705 451.284C234.705 459.979 235.558 466.433 237.264 470.645C239.039 474.856 241.394 476.962 244.328 476.962C247.332 476.962 249.686 474.89 251.393 470.746C253.099 466.535 253.952 460.047 253.952 451.284C253.952 442.521 253.065 436.034 251.29 431.822C249.584 427.611 247.263 425.505 244.328 425.505Z" fill="#242320"/>
<path d="M327.391 423.467C335.24 423.467 341.383 425.709 345.819 430.192C350.256 434.607 352.474 441.638 352.474 451.284C352.474 460.93 350.256 467.961 345.819 472.377C341.383 476.792 335.24 479 327.391 479C319.61 479 313.468 476.792 308.963 472.377C304.527 467.961 302.308 460.93 302.308 451.284C302.308 441.638 304.527 434.607 308.963 430.192C313.468 425.709 319.61 423.467 327.391 423.467ZM327.391 425.505C324.456 425.505 322.102 427.645 320.327 431.924C318.621 436.136 317.768 442.589 317.768 451.284C317.768 459.979 318.621 466.433 320.327 470.645C322.102 474.856 324.456 476.962 327.391 476.962C330.394 476.962 332.749 474.89 334.455 470.746C336.162 466.535 337.015 460.047 337.015 451.284C337.015 442.521 336.128 436.034 334.353 431.822C332.647 427.611 330.326 425.505 327.391 425.505Z" fill="#242320"/>
<path d="M379.391 468.097C379.391 470.882 379.869 472.818 380.824 473.905C381.78 474.924 383.486 475.434 385.943 475.434V477.573C378.845 477.302 374.272 477.166 372.224 477.166C369.904 477.166 365.194 477.302 358.096 477.573V475.434C360.485 475.434 362.157 474.924 363.113 473.905C364.136 472.818 364.648 470.882 364.648 468.097V410.017C364.648 406.892 364.136 404.616 363.113 403.19C362.157 401.763 360.485 401.05 358.096 401.05V398.91C360.28 399.114 362.396 399.216 364.444 399.216C370.382 399.216 375.364 398.74 379.391 397.789V468.097Z" fill="#242320"/>
<path d="M412.322 432.943C415.393 426.626 420.956 423.467 429.009 423.467C434.333 423.467 438.087 424.791 440.271 427.441C441.431 428.731 442.25 430.43 442.728 432.536C443.274 434.573 443.547 437.291 443.547 440.687V468.097C443.547 470.882 444.025 472.818 444.98 473.905C445.936 474.924 447.642 475.434 450.099 475.434V477.573C443.001 477.302 438.496 477.166 436.585 477.166C434.265 477.166 429.828 477.302 423.276 477.573V475.434C425.324 475.434 426.757 474.924 427.576 473.905C428.395 472.818 428.805 470.882 428.805 468.097V436.408C428.805 433.622 428.327 431.517 427.371 430.09C426.484 428.664 424.846 427.95 422.457 427.95C419.59 427.95 417.168 429.071 415.188 431.313C413.277 433.487 412.322 436.272 412.322 439.668V468.097C412.322 470.882 412.731 472.818 413.55 473.905C414.369 474.924 415.802 475.434 417.85 475.434V477.573C411.298 477.302 407.066 477.166 405.155 477.166C402.834 477.166 398.125 477.302 391.027 477.573V475.434C393.416 475.434 395.088 474.924 396.043 473.905C397.067 472.818 397.579 470.882 397.579 468.097V410.118C397.579 406.994 397.067 404.718 396.043 403.291C395.088 401.865 393.416 401.152 391.027 401.152V399.012C393.211 399.216 395.327 399.318 397.374 399.318C403.312 399.318 408.295 398.842 412.322 397.891V432.943Z" fill="#242320"/>
<path d="M467.98 478.287C463.611 478.287 460.335 477.166 458.151 474.924C456.035 472.682 454.978 469.727 454.978 466.059C454.978 463.002 455.762 460.489 457.332 458.519C458.97 456.481 460.915 454.919 463.168 453.832C465.488 452.745 468.423 451.59 471.972 450.367C475.726 449.077 478.456 447.922 480.163 446.903C481.937 445.816 482.825 444.355 482.825 442.521V434.573C482.825 431.72 482.142 429.513 480.777 427.95C479.48 426.32 477.433 425.505 474.634 425.505C471.358 425.505 468.867 426.32 467.161 427.95C469.072 428.63 470.539 429.648 471.563 431.007C472.655 432.366 473.201 433.962 473.201 435.796C473.201 438.106 472.416 439.94 470.846 441.299C469.276 442.657 467.365 443.336 465.113 443.336C462.724 443.336 460.881 442.589 459.585 441.095C458.288 439.6 457.639 437.732 457.639 435.491C457.639 433.588 458.083 431.992 458.97 430.701C459.926 429.343 461.359 428.086 463.27 426.931C465.113 425.844 467.365 424.995 470.027 424.384C472.757 423.773 475.726 423.467 478.934 423.467C482.279 423.467 485.179 423.806 487.636 424.486C490.093 425.165 492.141 426.32 493.779 427.95C495.281 429.445 496.27 431.279 496.748 433.453C497.294 435.626 497.567 438.581 497.567 442.318V470.033C497.567 471.664 497.704 472.818 497.977 473.498C498.318 474.177 498.932 474.517 499.819 474.517C500.843 474.517 502.072 473.939 503.505 472.784L504.529 474.517C501.457 477.03 497.704 478.287 493.267 478.287C489.513 478.287 486.886 477.539 485.384 476.045C483.882 474.551 483.098 472.547 483.029 470.033C479.617 475.536 474.6 478.287 467.98 478.287ZM475.863 471.765C478.525 471.765 480.845 470.373 482.825 467.588V446.699C482.005 448.058 480.265 449.552 477.603 451.182C474.941 452.881 472.928 454.579 471.563 456.277C470.198 457.976 469.515 460.421 469.515 463.614C469.515 466.399 470.095 468.471 471.256 469.829C472.416 471.12 473.952 471.765 475.863 471.765Z" fill="#242320"/>
<path d="M543.313 423.467C546.384 423.467 548.705 424.384 550.275 426.218C551.844 428.052 552.629 430.26 552.629 432.841C552.629 435.355 551.878 437.427 550.377 439.057C548.944 440.619 547.033 441.4 544.644 441.4C542.323 441.4 540.48 440.823 539.115 439.668C537.75 438.445 537.068 436.849 537.068 434.879C537.068 431.618 538.569 428.969 541.572 426.931C541.299 426.863 540.89 426.829 540.344 426.829C539.661 426.829 539.115 426.897 538.706 427.033C536.112 427.441 533.894 429.003 532.051 431.72C530.277 434.438 529.389 437.223 529.389 440.076V467.078C529.389 470.203 530.14 472.377 531.642 473.6C533.211 474.822 535.669 475.434 539.013 475.434V477.573C538.057 477.573 537.272 477.539 536.658 477.472C529.696 477.268 525.055 477.166 522.735 477.166C520.892 477.166 516.694 477.268 510.142 477.472C509.596 477.539 508.914 477.573 508.094 477.573V475.434C510.552 475.434 512.258 474.924 513.213 473.905C514.169 472.818 514.647 470.882 514.647 468.097V436C514.647 432.875 514.169 430.6 513.213 429.173C512.258 427.746 510.552 427.033 508.094 427.033V424.893C510.279 425.097 512.394 425.199 514.442 425.199C520.516 425.199 525.499 424.724 529.389 423.773V433.249C530.686 430.328 532.563 427.984 535.02 426.218C537.477 424.384 540.241 423.467 543.313 423.467Z" fill="#242320"/>
<path d="M599.131 423.467C601.724 423.467 604.113 423.806 606.297 424.486C608.481 425.097 610.154 425.81 611.314 426.626C611.996 427.101 612.611 427.339 613.157 427.339C613.771 427.339 614.283 427.033 614.692 426.422C615.17 425.742 615.477 424.791 615.614 423.569H617.764C617.491 427.033 617.354 433.011 617.354 441.502H615.204C614.59 437.019 613.225 433.283 611.109 430.294C609.062 427.237 606.058 425.709 602.1 425.709C600.052 425.709 598.346 426.286 596.981 427.441C595.684 428.596 595.036 430.192 595.036 432.23C595.036 434.539 595.821 436.543 597.39 438.242C598.96 439.872 601.417 441.876 604.762 444.254L607.731 446.393C611.894 449.518 614.965 452.303 616.945 454.749C618.924 457.194 619.914 460.251 619.914 463.919C619.914 466.908 619.026 469.558 617.252 471.867C615.545 474.177 613.225 475.943 610.29 477.166C607.355 478.389 604.113 479 600.564 479C596.81 479 593.602 478.287 590.94 476.86C588.756 475.773 587.187 475.06 586.231 474.72C585.549 474.517 584.934 474.754 584.388 475.434C583.91 476.045 583.535 476.996 583.262 478.287H581.112C581.385 474.415 581.522 467.622 581.522 457.908H583.672C585.037 470.407 589.644 476.656 597.493 476.656C599.472 476.656 601.144 476.079 602.509 474.924C603.943 473.701 604.659 471.867 604.659 469.422C604.659 467.52 604.216 465.821 603.328 464.327C602.509 462.833 601.451 461.508 600.155 460.353C598.858 459.198 596.913 457.602 594.319 455.564C591.248 453.118 588.893 451.148 587.255 449.654C585.685 448.16 584.32 446.393 583.16 444.355C582.068 442.318 581.522 440.042 581.522 437.528C581.522 433.181 583.228 429.75 586.641 427.237C590.053 424.724 594.217 423.467 599.131 423.467Z" fill="#242320"/>
<path d="M653.204 423.467C661.053 423.467 667.195 425.709 671.632 430.192C676.068 434.607 678.286 441.638 678.286 451.284C678.286 460.93 676.068 467.961 671.632 472.377C667.195 476.792 661.053 479 653.204 479C645.423 479 639.28 476.792 634.775 472.377C630.339 467.961 628.121 460.93 628.121 451.284C628.121 441.638 630.339 434.607 634.775 430.192C639.28 425.709 645.423 423.467 653.204 423.467ZM653.204 425.505C650.269 425.505 647.914 427.645 646.139 431.924C644.433 436.136 643.58 442.589 643.58 451.284C643.58 459.979 644.433 466.433 646.139 470.645C647.914 474.856 650.269 476.962 653.204 476.962C656.207 476.962 658.561 474.89 660.268 470.746C661.974 466.535 662.827 460.047 662.827 451.284C662.827 442.521 661.94 436.034 660.165 431.822C658.459 427.611 656.138 425.505 653.204 425.505Z" fill="#242320"/>
<path d="M705.203 468.097C705.203 470.882 705.681 472.818 706.636 473.905C707.592 474.924 709.298 475.434 711.755 475.434V477.573C704.657 477.302 700.084 477.166 698.037 477.166C695.716 477.166 691.007 477.302 683.908 477.573V475.434C686.297 475.434 687.969 474.924 688.925 473.905C689.949 472.818 690.461 470.882 690.461 468.097V410.017C690.461 406.892 689.949 404.616 688.925 403.19C687.969 401.763 686.297 401.05 683.908 401.05V398.91C686.092 399.114 688.208 399.216 690.256 399.216C696.194 399.216 701.176 398.74 705.203 397.789V468.097Z" fill="#242320"/>
<path d="M730.06 398.604C732.927 398.604 735.179 399.318 736.817 400.744C738.524 402.103 739.377 404.005 739.377 406.45C739.377 408.896 738.524 410.832 736.817 412.258C735.179 413.617 732.927 414.296 730.06 414.296C727.194 414.296 724.907 413.617 723.201 412.258C721.563 410.832 720.744 408.896 720.744 406.45C720.744 404.005 721.563 402.103 723.201 400.744C724.907 399.318 727.194 398.604 730.06 398.604ZM738.046 468.097C738.046 470.882 738.524 472.818 739.479 473.905C740.503 474.924 742.209 475.434 744.598 475.434V477.573C737.773 477.302 733.234 477.166 730.982 477.166C728.866 477.166 724.122 477.302 716.751 477.573V475.434C719.208 475.434 720.915 474.924 721.87 473.905C722.826 472.818 723.303 470.882 723.303 468.097V436C723.303 432.875 722.826 430.6 721.87 429.173C720.915 427.746 719.208 427.033 716.751 427.033V424.893C718.935 425.097 721.051 425.199 723.099 425.199C729.173 425.199 734.156 424.724 738.046 423.773V468.097Z" fill="#242320"/>
<path d="M800.055 466.365C800.055 469.49 800.532 471.765 801.488 473.192C802.443 474.618 804.15 475.332 806.607 475.332V477.472C804.491 477.268 802.375 477.166 800.259 477.166C794.185 477.166 789.203 477.641 785.312 478.592V469.829C782.992 475.943 778.555 479 772.003 479C765.587 479 760.468 476.69 756.646 472.071C752.892 467.384 751.049 460.353 751.118 450.979C751.118 445.001 752.073 439.974 753.984 435.898C755.964 431.754 758.659 428.664 762.072 426.626C765.553 424.52 769.512 423.467 773.948 423.467C778.93 423.467 782.719 424.758 785.312 427.339V410.017C785.312 406.892 784.8 404.616 783.776 403.19C782.821 401.763 781.149 401.05 778.76 401.05V398.91C780.944 399.114 783.06 399.216 785.107 399.216C791.045 399.216 796.028 398.74 800.055 397.789V466.365ZM776.2 474.618C778.453 474.618 780.432 473.803 782.138 472.173C783.913 470.543 784.971 468.335 785.312 465.55V429.886C783.606 427.577 781.115 426.422 777.838 426.422C774.221 426.422 771.423 428.494 769.443 432.637C767.464 436.781 766.509 442.963 766.577 451.182C766.509 459.47 767.293 465.448 768.932 469.116C770.638 472.784 773.061 474.618 776.2 474.618Z" fill="#242320"/>
<path d="M825.025 478.287C820.657 478.287 817.381 477.166 815.197 474.924C813.081 472.682 812.023 469.727 812.023 466.059C812.023 463.002 812.808 460.489 814.378 458.519C816.016 456.481 817.961 454.919 820.214 453.832C822.534 452.745 825.469 451.59 829.018 450.367C832.772 449.077 835.502 447.922 837.209 446.903C838.983 445.816 839.87 444.355 839.87 442.521V434.573C839.87 431.72 839.188 429.513 837.823 427.95C836.526 426.32 834.478 425.505 831.68 425.505C828.404 425.505 825.913 426.32 824.206 427.95C826.117 428.63 827.585 429.648 828.609 431.007C829.701 432.366 830.247 433.962 830.247 435.796C830.247 438.106 829.462 439.94 827.892 441.299C826.322 442.657 824.411 443.336 822.159 443.336C819.77 443.336 817.927 442.589 816.63 441.095C815.334 439.6 814.685 437.732 814.685 435.491C814.685 433.588 815.129 431.992 816.016 430.701C816.972 429.343 818.405 428.086 820.316 426.931C822.159 425.844 824.411 424.995 827.073 424.384C829.803 423.773 832.772 423.467 835.98 423.467C839.324 423.467 842.225 423.806 844.682 424.486C847.139 425.165 849.187 426.32 850.825 427.95C852.326 429.445 853.316 431.279 853.794 433.453C854.34 435.626 854.613 438.581 854.613 442.318V470.033C854.613 471.664 854.749 472.818 855.022 473.498C855.364 474.177 855.978 474.517 856.865 474.517C857.889 474.517 859.118 473.939 860.551 472.784L861.575 474.517C858.503 477.03 854.749 478.287 850.313 478.287C846.559 478.287 843.931 477.539 842.43 476.045C840.928 474.551 840.143 472.547 840.075 470.033C836.663 475.536 831.646 478.287 825.025 478.287ZM832.909 471.765C835.57 471.765 837.891 470.373 839.87 467.588V446.699C839.051 448.058 837.311 449.552 834.649 451.182C831.987 452.881 829.974 454.579 828.609 456.277C827.244 457.976 826.561 460.421 826.561 463.614C826.561 466.399 827.141 468.471 828.302 469.829C829.462 471.12 830.997 471.765 832.909 471.765ZM846.832 394.325C848.061 395.208 848.675 396.498 848.675 398.197C848.675 399.623 848.163 401.016 847.139 402.374C846.388 403.258 845.433 404.175 844.273 405.126C843.181 406.009 841.986 406.926 840.689 407.877C836.594 410.73 832.977 413.617 829.837 416.538L828.711 415.621C830.554 412.292 832.465 408.115 834.444 403.088C835.332 400.982 836.014 399.419 836.492 398.4C837.038 397.314 837.686 396.329 838.437 395.445C839.734 393.815 841.338 393 843.249 393C844.682 393 845.877 393.442 846.832 394.325Z" fill="#242320"/>
<path d="M900.359 423.467C903.43 423.467 905.751 424.384 907.32 426.218C908.89 428.052 909.675 430.26 909.675 432.841C909.675 435.355 908.924 437.427 907.423 439.057C905.99 440.619 904.078 441.4 901.69 441.4C899.369 441.4 897.526 440.823 896.161 439.668C894.796 438.445 894.114 436.849 894.114 434.879C894.114 431.618 895.615 428.969 898.618 426.931C898.345 426.863 897.936 426.829 897.39 426.829C896.707 426.829 896.161 426.897 895.752 427.033C893.158 427.441 890.94 429.003 889.097 431.72C887.322 434.438 886.435 437.223 886.435 440.076V467.078C886.435 470.203 887.186 472.377 888.687 473.6C890.257 474.822 892.714 475.434 896.059 475.434V477.573C895.103 477.573 894.318 477.539 893.704 477.472C886.742 477.268 882.101 477.166 879.78 477.166C877.938 477.166 873.74 477.268 867.188 477.472C866.642 477.539 865.959 477.573 865.14 477.573V475.434C867.597 475.434 869.304 474.924 870.259 473.905C871.215 472.818 871.693 470.882 871.693 468.097V436C871.693 432.875 871.215 430.6 870.259 429.173C869.304 427.746 867.597 427.033 865.14 427.033V424.893C867.324 425.097 869.44 425.199 871.488 425.199C877.562 425.199 882.545 424.724 886.435 423.773V433.249C887.732 430.328 889.609 427.984 892.066 426.218C894.523 424.384 897.287 423.467 900.359 423.467Z" fill="#242320"/>
<path d="M926.879 398.604C929.746 398.604 931.998 399.318 933.636 400.744C935.343 402.103 936.196 404.005 936.196 406.45C936.196 408.896 935.343 410.832 933.636 412.258C931.998 413.617 929.746 414.296 926.879 414.296C924.013 414.296 921.726 413.617 920.02 412.258C918.382 410.832 917.563 408.896 917.563 406.45C917.563 404.005 918.382 402.103 920.02 400.744C921.726 399.318 924.013 398.604 926.879 398.604ZM934.865 468.097C934.865 470.882 935.343 472.818 936.298 473.905C937.322 474.924 939.028 475.434 941.417 475.434V477.573C934.592 477.302 930.053 477.166 927.801 477.166C925.685 477.166 920.942 477.302 913.57 477.573V475.434C916.027 475.434 917.734 474.924 918.689 473.905C919.645 472.818 920.122 470.882 920.122 468.097V436C920.122 432.875 919.645 430.6 918.689 429.173C917.734 427.746 916.027 427.033 913.57 427.033V424.893C915.754 425.097 917.87 425.199 919.918 425.199C925.992 425.199 930.975 424.724 934.865 423.773V468.097Z" fill="#242320"/>
<path d="M972.917 423.467C980.766 423.467 986.909 425.709 991.345 430.192C995.782 434.607 998 441.638 998 451.284C998 460.93 995.782 467.961 991.345 472.377C986.909 476.792 980.766 479 972.917 479C965.136 479 958.994 476.792 954.489 472.377C950.053 467.961 947.834 460.93 947.834 451.284C947.834 441.638 950.053 434.607 954.489 430.192C958.994 425.709 965.136 423.467 972.917 423.467ZM972.917 425.505C969.982 425.505 967.628 427.645 965.853 431.924C964.147 436.136 963.294 442.589 963.294 451.284C963.294 459.979 964.147 466.433 965.853 470.645C967.628 474.856 969.982 476.962 972.917 476.962C975.92 476.962 978.275 474.89 979.981 470.746C981.688 466.535 982.541 460.047 982.541 451.284C982.541 442.521 981.654 436.034 979.879 431.822C978.173 427.611 975.852 425.505 972.917 425.505Z" fill="#242320"/>
</svg>
